# xmcd
#
# Track frame offsets:
#	150
#	17967
#	40003
#	58324
#	73920
#	85024
#	99130
#	116020
#	128159
#	143210
#
# Disc length: 2037 seconds
#
# Revision: 0
# Processed by: cddbd v1.4PL0 Copyright (c) Steve Scherf et al.
# Submitted via: dBpowerAMP V4.0
#
DISCID=8807f30a
DTITLE=Wil Gravatt Band - ...Ready to cross that line
DYEAR=1999
DGENRE=Country
TTITLE0=ready to cross that line
TTITLE1=Back Again
TTITLE2=Fed X
TTITLE3=Eastern Loving Time
TTITLE4=Buffalo Returns to the Plain
TTITLE5=Lonesome Trucker
TTITLE6=Copperhead Road
TTITLE7=Bein' Used Blues
TTITLE8=If I had a Boat
TTITLE9=Carnival Girl
EXTD=
EXTT0=
EXTT1=
EXTT2=
EXTT3=
EXTT4=
EXTT5=
EXTT6=
EXTT7=
EXTT8=
EXTT9=
PLAYORDER=
